<svg height="48" viewBox="0 0 1024 1024" width="48" xmlns="http://www.w3.org/2000/svg"><path d="m517.12 944.64c-236.11392 0-427.52-191.40608-427.52-427.52s191.40608-427.52 427.52-427.52 427.52 191.40608 427.52 427.52-191.40608 427.52-427.52 427.52zm0-801.59744c-206.59712 0-374.08256 167.48544-374.08256 374.08256s167.48544 374.07744 374.08256 374.07744c206.60224 0 374.08256-167.48544 374.08256-374.08256s-167.48032-374.07744-374.08256-374.07744zm37.94432 374.22592 113.2032 113.2032c10.42432 10.42944 10.42432 27.3664 0 37.79584-10.43456 10.42944-27.35104 10.42944-37.79584 0l-113.2032-113.20832-113.99168 113.9712c-10.51648 10.5216-27.5712 10.5216-38.07744 0-10.51648-10.5216-10.51648-27.5712 0-38.07744l113.98144-113.98144-113.20832-113.21856c-10.43456-10.42944-10.43456-27.35104 0-37.78048 10.43456-10.43968 27.34592-10.43968 37.79072 0l113.21344 113.20832 114.82112-114.82112c10.51648-10.5216 27.5712-10.5216 38.08256 0 10.51648 10.51136 10.51648 27.5712 0 38.08256z"/></svg>