<svg height="48" viewBox="0 0 1024 1024" width="48" xmlns="http://www.w3.org/2000/svg"><path d="m945.76 368.032-448-298.656c-10.752-7.168-24.768-7.168-35.488 0l-448 298.656c-8.896 5.92-14.24 15.936-14.24 26.624v298.656c0 10.688 5.344 20.704 14.24 26.624l448 298.656c5.376 3.584 11.552 5.376 17.76 5.376s12.384-1.792 17.76-5.376l448-298.656c8.896-5.92 14.24-15.936 14.24-26.624v-298.656c0-10.688-5.344-20.704-14.24-26.624zm-465.76 286.848-166.304-110.88 166.304-110.88 166.304 110.88zm32-277.344v-221.76l358.304 238.88-166.304 110.88zm-64 0-192 128-166.304-110.88 358.304-238.88zm-249.696 166.464-134.304 89.536v-179.072zm57.696 38.464 192 128v221.76l-358.304-238.88zm256 128 192-128 166.304 110.88-358.304 238.88zm249.696-166.464 134.304-89.536v179.072z"/></svg>