<svg height="48" viewBox="0 0 1024 1024" width="48" xmlns="http://www.w3.org/2000/svg"><path d="m869.006462 880.667547h-703.335747c-3.466961-.642636-6.928806-1.357927-10.416234-1.918699-42.908252-6.864338-79.71146-40.74396-90.024339-82.942037-.99056-4.059456-1.697665-8.188496-2.533706-12.289907v-540.125571c.454348-2.176572.899486-4.353145 1.367137-6.522554 9.824763-45.260833 37.551244-74.27361 80.996732-88.787162 6.653537-2.222621 13.728676-3.199878 20.61041-4.751211h242.86433c3.989871 2.605338 8.575306 4.606925 11.865235 7.90504 31.887244 31.969109 63.582107 64.123436 95.226828 96.341209 2.934842 2.990101 5.861498 4.300956 10.120498 4.29277 105.524358-.119727 211.045647-.11154 316.568982-.041956 6.932899.008186 13.921058.318248 20.793582 1.216711 45.231157 5.960759 84.711334 41.614793 95.39772 85.936231 1.052982 4.370541 1.868557 8.801457 2.793626 13.201673v433.275008c-.638543 3.282766-1.238201 6.577812-1.915629 9.846252-8.582469 41.289382-32.04995 69.310575-73.013921 81.557504-5.663998 1.697665-11.576661 2.565429-17.365504 3.806699zm-352.389816-43.541678h337.069899c2.587941 0 5.180999-.005117 7.774057-.077771 11.299347-.294712 21.698185-3.586688 30.825053-10.19213 18.267039-13.229303 25.568329-31.782867 25.568329-53.806463-.021489-136.480394.01228-272.951579-.095167-409.43402-.004093-5.431709-.532119-11.04966-1.938142-16.281825-8.157797-30.494525-37.551244-52.244898-70.28374-52.250014-110.416785-.030699-220.832548-.063445-331.240123.090051-8.711406.013303-15.503089-2.715855-21.578458-8.916067-31.621185-32.252565-63.402005-64.345494-95.252411-96.365768-1.602498-1.606591-4.383844-2.888793-6.613628-2.892887-71.39505-.150426-142.794194.197498-214.18822-.261966-35.032888-.221034-71.059406 31.486108-70.861908 71.172993.839111 170.476673.355087 340.953346.355087 511.428995 0 1.462305.01842 2.914376 0 4.370541-.110517 14.575973 4.979408 27.259854 14.426571 38.131459 15.152095 17.408485 34.498722 25.341155 57.498552 25.326828 112.840997-.090052 225.690181-.041956 338.534249-.041956zm0 0"/></svg>