<svg height="32" viewBox="0 0 1024 1024" width="32" xmlns="http://www.w3.org/2000/svg"><path d="m888.494817 313.882803-198.019982-198.019982c-7.992021-7.992021-20.957311-7.992021-28.949332 0s-7.992021 20.947078 0 28.939099l163.084309 163.084309h-215.794811l-.000002-265.200034c0-11.307533-9.15859-20.466124-20.466124-20.466124h-408.094512c-11.307533 0-20.466124 9.15859-20.466124 20.466124v938.62761c0 11.2973 9.15859 20.466124 20.466124 20.466124h693.76067c11.307533 0 20.466124-9.168824 20.466124-20.466124v-652.961452c.000001-5.423523-2.148942-10.632151-5.98634-14.46955zm-34.945907 646.964878h-652.828422v-897.695362h367.162264v265.200034c0 11.307533 9.168824 20.466124 20.466124 20.466124h265.200034z"/></svg>