<svg height="48" viewBox="0 0 1024 1024" width="48" xmlns="http://www.w3.org/2000/svg"><path d="m703.968613 512.083693h-383.937226c-17.661113 0-31.994769 14.333656-31.994769 31.994769 0 17.693107 14.333656 31.994769 31.994769 31.994769h383.937226c17.661113 0 31.994769-14.301662 31.994769-31.994769 0-17.661113-14.333656-31.994769-31.994769-31.994769zm0 191.968613h-383.937226c-17.661113 0-31.994769 14.301662-31.994769 31.994769s14.333656 31.994769 31.994769 31.994769h383.937226c17.661113 0 31.994769-14.301662 31.994769-31.994769s-14.333656-31.994769-31.994769-31.994769zm31.994769-447.926764c-35.322225 0-63.989538-28.667313-63.989538-63.989538v-127.979075l191.968613 191.968613zm127.979075 639.895377c0 35.322225-28.667312 63.989538-63.989537 63.989538h-575.90584c-35.322225 0-63.989537-28.667313-63.989537-63.989538v-767.874452c0-35.322225 28.667312-63.989538 63.989537-63.989538h383.041373c-.575906 76.627471.895854 127.979075.895854 127.979075 0 70.676445 57.302631 127.979076 127.979075 127.979076h127.979075zm-191.968613-895.853528v.895854c-4.09533 0-21.180537-1.567744-63.989537-.895854h-383.937227c-70.676444 0-127.979075 57.302631-127.979075 127.979076v767.874452c0 70.676445 57.302631 127.979076 127.979075 127.979076h575.90584c70.676444 0 127.979075-57.302631 127.979075-127.979076v-639.895377z"/></svg>