<svg height="48" viewBox="0 0 1024 1024" width="48" xmlns="http://www.w3.org/2000/svg"><path d="m892.5 248.1h-377.4c-.9-.3-2.5-1.6-3-2.4l-15.6-56c-3.8-16.6-13.7-31.9-27.8-43.2-14-11.2-31-17.4-47.7-17.4h-286.6c-38.1 0-69.1 31.6-69.1 70.4v625.1c0 38.8 31 70.3 69.1 70.3h758.1c18.2 0 35.4-7.2 48.4-20.2 13.3-13.4 20.7-31.2 20.6-50.2v-506c.1-38.8-30.9-70.4-69-70.4zm-760.2-48.6c0-1.9 1.2-3.4 2.1-3.4h286.6c1.2 0 3.5.8 5.8 2.7 2.5 2 3.8 4.2 4.2 5.4v.1l14.6 51.8h-313.3zm762 625.1c0 1.1-.3 1.9-1 2.7-.5.5-.8.5-1 .5h-758c-.8 0-2.1-1.4-2.1-3.4v-497.6h762v497.8z"/></svg>