<svg height="32" viewBox="0 0 1024 1024" width="32" xmlns="http://www.w3.org/2000/svg"><path d="m960.975595 272.065396v-61.152778c0-33.789571-27.496238-61.275575-61.285808-61.275575h-529.86795c-.818645-.429789-3.499707-2.148943-8.258081-8.135284-4.91187-6.170536-9.915837-14.152325-15.20633-22.604834-15.687284-25.009603-31.906687-50.878784-58.809407-50.878784l-224.462215-.000001c-33.779338 0-61.275575 27.486004-61.275575 61.275575v693.801603c0 .337691.010233.685615.030699 1.023306.010233.245593.030699.50142.051165.76748.020466.225127.040932.450255.071631.675382.010233.112564.030699.225127.051165.347924.010233.173962.040932.337691.071631.511653.051165.276293.102331.552585.153496.818645.040932.225127.092098.460488.153496.685615.173962.685615.36839 1.350764.603751 2.015913.102331.26606.204661.532119.306992.798179.081864.204661.173962.409322.255827.613984.051165.092098.092098.194428.13303.296759.102331.214894.214894.440022.327458.654916.173962.347924.36839.695848.573051 1.043772.081864.153496.173962.306992.26606.450255.849344 1.381463 1.862417 2.660596 3.018753 3.806699.163729.163729.327458.327458.50142.480954.286526.26606.583285.521886.880043.76748.255827.204661.511653.409322.777713.613984.26606.194428.532119.388856.798179.562818.26606.184195.532119.358157.808412.521886.317225.194428.644683.378623.982374.552585.184195.112564.378623.204661.573051.306992.204661.092098.409322.194428.603751.286526h.020466c.26606.122797.542352.245593.818645.347924.552585.225127 1.115404.429789 1.698688.603751.573051.173962 1.166569.327458 1.77032.450255.757247.153496 1.50426.26606 2.251274.337691.624217.061398 1.248434.092098 1.87265.092098h.061398c.347924 0 .685615-.010233 1.033539-.030699.245593 0 .491187-.020466.73678-.051165.245593-.020466.50142-.040932.747014-.081864.081864 0 .163729-.010233.23536-.030699.214894-.020466.429789-.051165.644683-.092098.26606-.040932.521886-.092098.777713-.143263.194428-.040932.388856-.081864.583285-.143263.716314-.163729 1.412163-.36839 2.097778-.613984.26606-.102331.532119-.204661.798179-.306992.26606-.112564.521886-.214894.777713-.337691h.020466c.26606-.122797.511653-.245593.76748-.378623.358157-.173962.706081-.358157 1.043772-.573051.153496-.081864.306992-.173962.450255-.26606.798179-.480954 1.555425-1.023306 2.281973-1.627057.255827-.204661.50142-.419556.747014-.644683.23536-.214894.470721-.440022.706081-.675382s.460488-.470721.675382-.706081c.225127-.245593.440022-.491187.644683-.747014s.409322-.511653.613984-.777713c.010233-.010233.010233-.010233.010233-.010233.378623-.521886.747014-1.064238 1.084705-1.616824.173962-.286526.337691-.573051.491187-.859577.13303-.245593.26606-.491187.388856-.73678.040932-.092098.092098-.184195.13303-.276293.092098-.204661.184195-.409322.276293-.624217.102331-.214894.194428-.450255.276293-.675382.081864-.194428.153496-.388856.225127-.583285.020466-.071631.051165-.143263.071631-.225127.081864-.225127.153496-.460488.225127-.695848.173962-.573051.327458-1.166569.450255-1.77032l.020466-.102331 102.443184-491.678162v-2.108011c0-11.215436 9.117658-20.343327 20.343327-20.343327h795.794531c10.683317 0 19.48375 8.28878 20.281929 18.787902l-101.542674 548.31816-.081864.450255c-.061398.317225-.112564.63445-.153496.941442-.040932.296759-.071631.583285-.102331.86981-.020466.286526-.051165.573051-.061398.859577-.020466.327458-.030699.665149-.030699.992607v.081864c-.010233 11.205203-9.127891 20.322861-20.343327 20.322861h-596.034928c-11.307533 0-20.466124 9.15859-20.466124 20.466124 0 11.2973 9.15859 20.466124 20.466124 20.466124h596.034928c33.073256 0 60.109006-26.339902 61.234643-59.136865v-.010233l101.726869-549.341466.347924-1.841951v-1.882883c-.000002-33.769107-27.46554-61.244878-61.214178-61.275577zm-40.932248 0h-754.923682c-33.011858 0-60.016909 26.237571-61.234643 58.962903l-61.142545 293.494451v-495.229035c0-11.215436 9.127891-20.343327 20.343327-20.343327h224.042659c.706081.306992 3.50994 1.821485 8.677637 8.217149 5.157463 6.385431 10.601452 15.0733 15.871479 23.474644 15.380292 24.549116 31.292704 49.927109 57.489342 49.927109h530.522865c11.225669 0 20.35356 9.127891 20.35356 20.343327z"/><path d="m16.341177 842.650699c-.573051-.173962-1.146103-.36839-1.698688-.603751.552585.225128 1.115403.429789 1.698688.603751z"/></svg>