<svg height="48" viewBox="0 0 1024 1024" width="48" xmlns="http://www.w3.org/2000/svg"><path d="m383.989248 841.15456q0-22.85568-15.998976-38.854656t-38.854656-15.998976-38.854656 15.998976-15.998976 38.854656 15.998976 38.854656 38.854656 15.998976 38.854656-15.998976 15.998976-38.854656zm0-658.243584q0-22.85568-15.998976-38.854656t-38.854656-15.998976-38.854656 15.998976-15.998976 38.854656 15.998976 38.854656 38.854656 15.998976 38.854656-15.998976 15.998976-38.854656zm365.69088 73.138176q0-22.85568-15.998976-38.854656t-38.854656-15.998976-38.854656 15.998976-15.998976 38.854656 15.998976 38.854656 38.854656 15.998976 38.854656-15.998976 15.998976-38.854656zm54.853632 0q0 29.712384-14.856192 55.139328t-39.99744 39.711744q-1.142784 163.989504-129.134592 236.556288-38.854656 21.712896-115.992576 46.282752-73.138176 22.85568-96.850944 40.568832t-23.712768 57.1392v14.856192q25.141248 14.2848 39.99744 39.711744t14.856192 55.139328q0 45.71136-31.997952 77.709312t-77.709312 31.997952-77.709312-31.997952-31.997952-77.709312q0-29.712384 14.856192-55.139328t39.99744-39.711744v-468.54144q-25.141248-14.2848-39.99744-39.711744t-14.856192-55.139328q0-45.71136 31.997952-77.709312t77.709312-31.997952 77.709312 31.997952 31.997952 77.709312q0 29.712384-14.856192 55.139328t-39.99744 39.711744v283.981824q30.855168-14.856192 87.994368-32.569344 31.42656-9.713664 49.9968-16.856064t40.283136-17.713152 33.712128-22.569984 23.141376-29.140992 15.998976-39.711744 4.856832-52.282368q-25.141248-14.2848-39.99744-39.711744t-14.856192-55.139328q0-45.71136 31.997952-77.709312t77.709312-31.997952 77.709312 31.997952 31.997952 77.709312z"/></svg>