<svg height="48" viewBox="0 0 1024 1024" width="48" xmlns="http://www.w3.org/2000/svg"><path d="m536 200c-165.936 0-302.336 126.304-318.384 288h-33.616l48 96 48-96h-30.128c15.936-143.984 137.888-256 286.128-256 159.056 0 288 128.944 288 288s-128.944 288-288 288c-92.4 0-174.432-43.68-227.12-111.344l-25.232 19.632c58.56 75.168 149.68 123.712 252.352 123.712 176.736 0 320-143.28 320-320 0-176.736-143.264-320-320-320zm0 96c-8.848 0-16 7.168-16 16v208c0 .416.208.784.24 1.184-.064 6.112 2.544 12.112 7.696 15.376l144.256 77.088c7.6 4.832 17.296 1.968 21.68-6.368 4.368-8.352 1.776-19.024-5.808-23.84l-136.064-72.736v-198.704c0-8.832-7.152-16-16-16z"/></svg>