<svg height="48" viewBox="0 0 1024 1024" width="48" xmlns="http://www.w3.org/2000/svg"><path d="m822.174274 93.477178c21.244813 0 38.240664 16.995851 38.240664 38.240664v849.792531c0 6.373444 4.248963 10.622407 10.622407 8.497925 27.618257-4.248963 46.738589-27.618257 46.738589-57.360996v-830.672199c0-36.116183-29.742739-65.858921-65.858921-65.858921h-686.207469c-33.991702.000001-59.485478 25.493777-59.485478 57.360996v830.672199c0 36.116183 29.742739 65.858921 65.858921 65.858921h516.248963c16.995851 0 29.742739-12.746888 29.742739-29.742739s-12.746888-29.742739-29.742739-29.742739l-495.004149.000002c-16.995851 0-29.742739-12.746888-29.742739-29.742739v-67.983402-645.842324-55.236515c0-21.244813 16.995851-38.240664 38.240664-38.240664h67.983402z"/><path d="m692.580913 354.788382h-361.161826c-6.373444 0-12.746888-6.373444-12.746888-12.746888v-33.991701c0-6.373444 6.373444-12.746888 12.746888-12.746888h361.161826c6.373444 0 12.746888 6.373444 12.746888 12.746888v33.991701c0 8.497925-6.373444 12.746888-12.746888 12.746888z"/><path d="m692.580913 541.742739h-361.161826c-6.373444 0-12.746888-6.373444-12.746888-12.746888v-33.991701c0-6.373444 6.373444-12.746888 12.746888-12.746888h361.161826c6.373444 0 12.746888 6.373444 12.746888 12.746888v33.991701c0 6.373444-6.373444 12.746888-12.746888 12.746888z"/><path d="m692.580913 726.572614h-361.161826c-6.373444 0-12.746888-6.373444-12.746888-12.746888v-33.991701c0-6.373444 6.373444-12.746888 12.746888-12.746888h361.161826c6.373444 0 12.746888 6.373444 12.746888 12.746888v33.991701c0 6.373444-6.373444 12.746888-12.746888 12.746888z"/></svg>