<svg height="48" viewBox="0 0 1024 1024" width="48" xmlns="http://www.w3.org/2000/svg"><path d="m405.78908 856.585277c-.765429.765429-1.561475 1.561475-2.296287 2.326904-76.78783 73.45056-198.91967 74.889566-272.982573 2.939247-78.563625-73.940435-80.1251-181.03925 1.347155-263.43002.64296-.64296 1.163452-1.316538 1.806412-1.959498.765429-.704195 1.500241-1.469624 2.235052-2.173818l505.795436-491.527841v.21432l.122469-.398023 4.010848-3.918996c46.721782-44.456112 120.815302-45.252158 165.761289-1.561475 27.03495 38.516384 44.058089 116.008408-1.500241 161.076864l-4.194551 4.102699-47.854617 46.446227-43.905003 42.710934-370.436984 359.904683-.183703-.183703-42.741551 41.516865-1.163452-1.439006-1.071601 1.194069-2.112584 2.326904c-.183703.122469-.398023.244937-.551109.42864-17.084374 15.431047-43.445746 15.553516-59.580988-.122469-15.982156-15.553516-15.951539-38.332681-.030617-55.294586.520492-.489875.826663-1.071601 1.347155-1.561475l46.354376-45.068455 339.391187-329.7774-46.446227-45.037838-339.391187 329.838634-41.210694 44.976604v.061234c-.122469.122469-.244937.183703-.398023.367406-.367406.367406-.673577.704195-1.040983 1.102218-42.343528 42.282294-48.191405 103.730928-6.429603 144.359896 41.79242 40.567733 110.283 37.352932 153.759363-3.827145l.061234.061234.85728-.887898c.091851-.061234.183703-.122469.244937-.183703.091851-.061234.153086-.183703.21432-.244937l460.849449-440.152251 47.793382-46.507462 4.255785-4.072082-.061234-.061234c72.134022-71.123656 37.873423-204.338907 3.000481-252.530312-70.97057-68.949838-187.805642-67.265894-260.95003 3.857762-1.071601 1.010366-1.959498 2.143201-3.000481 3.214802l-.122469-.091851-505.856669 491.589074.061234.061234c-.398023.42864-.826663.704195-1.255303 1.132835-.704195.64296-1.347155 1.500241-2.05135 2.204435l-.734812.704195.030617.061234c-100.332424 100.48551-101.98575 258.500658-2.816778 354.97532 100.148721 97.331943 265.083347 94.88257 368.324401-5.449854.42864-.42864.734812-.826663 1.163452-1.255303l.122469.122469 536.688147-521.563272-46.41561-45.099072z"/></svg>