<svg height="48" viewBox="0 0 1025 1024" width="48.046875" xmlns="http://www.w3.org/2000/svg"><path d="m127.5904 229.888c82.176-82.176 191.488-127.488 307.712-127.488s225.536 45.2608 307.712 127.488 127.488 191.488 127.488 307.712v66.2016l109.8752-109.8752c9.984-9.984 26.2144-9.984 36.1984 0s9.984 26.2144 0 36.1984l-153.6 153.6c-5.0176 5.0176-11.5712 7.4752-18.1248 7.4752s-13.1072-2.5088-18.1248-7.4752l-153.6-153.6c-9.984-9.984-9.984-26.2144 0-36.1984s26.2144-9.984 36.1984 0l109.8752 109.8752v-66.2016c0-211.7632-172.2368-384-384-384s-384 172.2368-384 384 172.2368 384 384 384c14.1312 0 25.6 11.4688 25.6 25.6s-11.4688 25.6-25.6 25.6c-116.224 0-225.536-45.2608-307.712-127.488s-127.488-191.488-127.488-307.712 45.2608-225.536 127.488-307.712z"/></svg>