<svg height="32" viewBox="0 0 1024 1024" width="32" xmlns="http://www.w3.org/2000/svg"><g fill="#fff"><path d="m467.921455 929.629091c-253.998545 0-460.637091-206.638545-460.637091-460.613818 0-254.021818 206.638545-460.660364 460.637091-460.660364s460.637091 206.638545 460.637091 460.660364c-.000001 253.975272-206.615273 460.613818-460.637091 460.613818zm0-874.728727c-228.328727 0-414.091636 185.762909-414.091636 414.114909 0 228.328727 185.762909 414.068364 414.091636 414.068364 228.352 0 414.091636-185.739636 414.091636-414.068364 0-228.352-185.739636-414.114909-414.091636-414.114909z"/><path d="m994.629818 1015.645091c-5.701818 0-11.426909-2.094545-15.941818-6.306909l-220.066909-206.592c-9.355636-8.797091-9.844364-23.552-1.047273-32.907636 8.820364-9.355636 23.552-9.797818 32.907636-1.047273l220.066909 206.592c9.355636 8.797091 9.844364 23.552 1.047273 32.907636-4.561454 4.887273-10.752 7.354182-16.965818 7.354182z"/></g></svg>