<svg height="48" viewBox="0 0 1024 1024" width="48" xmlns="http://www.w3.org/2000/svg"><path d="m471.86368 72.097804c13.811275-30.163328 21.181188-30.092983 34.224382.245651l113.657369 264.368487c5.418144 12.602671 20.222311 18.509315 33.066029 13.192858 12.843719-5.316459 18.863337-19.842782 13.445193-32.445455l-113.65737-264.368486c-30.206289-70.260213-94.920237-70.877902-126.782001-1.292949l-119.213576 260.358188c-5.712879 12.476721-.036246 27.13539 12.679116 32.741052 12.71536 5.60566 27.654403.035565 33.367279-12.441159zm474.46541 324.385492c33.503635 3.567802 35.712883 10.467198 10.337818 32.014355l-221.116327 187.760248c-10.540804 8.950692-11.691061 24.5913-2.569173 34.934278 9.121888 10.342976 25.061649 11.471646 35.602453 2.520956l221.116327-187.760248c58.76525-49.90033 39.366235-110.482737-37.924604-118.713435l-289.190436-30.795883c-13.858405-1.47578-26.312101 8.351473-27.816109 21.949788-1.504006 13.598312 8.511211 25.81828 22.369613 27.29406zm-157.03734 549.551281c6.895111 32.368352.890586 36.562067-27.835259 19.540309l-250.314776-148.326272c-11.932719-7.070839-27.447782-3.311057-34.653864 8.397713-7.206082 11.708768-3.374385 26.932651 8.558334 34.003491l250.314775 148.326272c66.525212 39.420113 119.249907 2.595814 103.343305-72.07599l-59.515941-279.391089c-2.852087-13.388806-16.225527-21.973896-29.870417-19.175338-13.644889 2.79856-22.394184 15.921011-19.542099 29.309815zm-556.517945 17.330624c-29.242223 16.436941-35.162471 12.129404-27.540955-19.937779l66.413288-279.430925c3.165977-13.32071-5.2726-26.637645-18.848092-29.744205s-27.147136 5.173645-30.313114 18.494355l-66.413288 279.430925c-17.650408 74.263301 34.334262 112.08704 101.79428 74.168026l252.407563-141.877308c12.095718-6.798957 16.284173-21.932087 9.355174-33.800798-6.928998-11.868708-22.351577-15.978553-34.447294-9.179599zm-102.779704-462.077572c-47.891643-42.601355-47.891643-42.601355-87.801346-78.102481-10.327651-9.186821-26.289699-8.419121-35.652232 1.714703s-8.580151 25.7963 1.747499 34.983119c39.909703 35.501128 39.909703 35.501128 87.801346 78.102481l127.711048 113.603609c10.32765 9.186821 26.289698 8.419121 35.652233-1.714703 9.362532-10.133824 8.580151-25.7963-1.747501-34.983121-31.927761-28.400902-31.927761-28.400902-127.711047-113.603607zm50.401361-119.024751c9.971383-.995247 20.265957-2.052583 30.827851-3.164028 25.45046-2.678191 51.300497-5.546455 76.212459-8.414686 8.719511-1.003917 16.700307-1.936281 23.774713-2.773297 4.250722-.502927 7.250364-.861798 8.857189-1.055925 13.835291-1.671573 23.670016-14.031881 21.96647-27.607516-1.703548-13.575635-14.300265-23.225783-28.135558-21.55421-1.548572.187108-4.523725.543051-8.731196 1.040862-7.022584.830882-14.95018 1.757032-23.614468 2.754592-24.756035 2.850276-50.443638 5.700518-75.712478 8.359599-10.473387 1.102129-20.676939 2.150116-30.55346 3.135895-20.541622 2.050268-39.362728 3.801242-56.079324 5.199542-13.889401 1.161811-24.189136 13.151914-23.005103 26.780642 1.184034 13.628729 13.403467 23.735161 27.292868 22.57335 17.015649-1.423315 36.102924-3.199051 56.900037-5.27482z"/></svg>