<svg height="32" viewBox="0 0 1024 1024" width="32" xmlns="http://www.w3.org/2000/svg"><path d="m979.067648 415.512459s.040932-300.381301.040932-303.553551c0-39.417755-32.060183-71.477938-71.477938-71.477938-3.172249 0-303.543318.040932-303.533085.040932-2.128477 0-4.256954-.010233-6.364965-.020466-2.241041-.010233-4.461615-.020466-6.671956-.020466-19.893072 0-49.947576 0-69.615521 19.657712l-463.772602 463.782835c-11.164271 11.143805-17.304108 25.971511-17.304108 41.750893 0 15.769149 6.139837 30.596855 17.293875 41.761126l354.503966 354.493733c11.143805 11.154038 25.971511 17.304108 41.750893 17.304108s30.607088-6.139837 41.761126-17.293875l463.762369-463.782835c19.882839-19.862373 19.770276-48.433082 19.647479-76.052117-.010232-2.179642-.020465-4.37975-.020465-6.590091zm-40.911782 6.764054c.092098 20.107967.163729 39.110763-7.65433 46.918589l-463.772602 463.793068c-3.417843 3.428076-7.971555 5.310959-12.811794 5.310959-4.830005 0-9.373485-1.882883-12.791327-5.310959l-354.514199-354.503966c-3.428076-3.428076-5.310959-7.971555-5.310959-12.811794s1.882883-9.373485 5.310959-12.801561l463.782835-463.782835c7.081279-7.081279 23.976064-7.674796 40.666188-7.674796 2.148943 0 4.308119.010233 6.487761.020466 2.169409.010233 4.349051.020466 6.54916.020466 0 0 300.360835-.040932 303.533085-.040932 16.84362 0 30.54569 13.70207 30.54569 30.54569 0 3.172249-.040932 303.553551-.040932 303.553551-.000001 2.271739.010232 4.523013.020465 6.764054z"/><path d="m859.83201 220.122373c-10.478655 4.246721-22.410406-.808412-26.657126-11.276834-2.046612-5.0449-5.055133-9.578146-8.953929-13.46671-7.705496-7.705496-17.938558-11.941983-28.836769-11.941983-10.877745 0-21.110807 4.236488-28.795836 11.93175-15.891945 15.891945-15.881712 41.750893.010233 57.642838 15.871479 15.881712 41.730427 15.881712 57.622372 0 7.992021-7.992021 20.957311-7.992021 28.939099.010233 7.992021 7.992021 7.992021 20.957311-.010233 28.939099-15.922644 15.912411-36.839023 23.873734-57.745169 23.873734-20.926612 0-41.832757-7.961322-57.755402-23.873734-31.845289-31.855522-31.855522-83.675748-.020466-115.53127 15.421224-15.431457 35.938514-23.924899 57.755402-23.924899 21.827121 0 42.34441 8.493441 57.775868 23.924899 7.78736 7.78736 13.824867 16.884552 17.938558 27.03575 4.24672 10.468423-.79818 22.410406-11.266602 26.657127z"/></svg>