<svg height="48" viewBox="0 0 1024 1024" width="48" xmlns="http://www.w3.org/2000/svg"><path d="m511.47776 959.86688c-247.40864 0-448.6656-201.25184-448.6656-448.6656 0-247.36256 201.25696-448.6656 448.6656-448.6656 247.41376 0 448.61952 201.30304 448.61952 448.6656 0 247.41376-201.20576 448.6656-448.6144 448.6656zm0-851.072c-221.92128 0-402.40128 180.5312-402.40128 402.4064s180.48 402.4064 402.40128 402.4064c221.8752 0 402.36032-180.5312 402.36032-402.4064s-180.48512-402.4064-402.36032-402.4064zm0 484.64384c-99.64544 0-180.73088-81.08032-180.73088-180.73088s81.08544-180.736 180.736-180.736c99.64544 0 180.72576 81.08544 180.72576 180.736s-81.08032 180.73088-180.73088 180.73088zm0-315.19744c-74.15808 0-134.46656 60.30848-134.46656 134.46656s60.3136 134.47168 134.46656 134.47168c74.1632 0 134.47168-60.3136 134.47168-134.47168s-60.3136-134.46656-134.47168-134.46656zm225.29024 487.64928a23.168 23.168 0 0 1 -22.03136-16.15872c-28.29824-88.76032-109.9776-148.41856-203.25888-148.41856-87.7056 0-167.7312 54.99392-199.18848 136.832a23.02976 23.02976 0 0 1 -29.85472 13.29152 23.0912 23.0912 0 0 1 -13.30176-29.8496c38.23616-99.59936 135.6288-166.53312 242.35008-166.53312 113.44384 0 212.89472 72.6528 247.31648 180.6336a23.12704 23.12704 0 0 1 -15.0016 29.10208 24.8064 24.8064 0 0 1 -7.02976 1.09568z"/></svg>