<svg height="48" viewBox="0 0 1024 1024" width="48" xmlns="http://www.w3.org/2000/svg"><path d="m106.493 896.444h-35.032c-9.681 0-17.528-7.848-17.528-17.528v-34.29c-.952-13.055-.759-55.13 33.913-98.964 15.121-19.117 34.57-35.434 57.804-48.493 26.329-14.799 57.621-25.422 93.005-31.574.211-.037.423-.069.636-.098 38.811-5.288 71.008-14.877 84.76-20.838-.121-3.511-.386-8.194-.916-14.288-3.923-44.359-26.693-70.194-48.715-95.18-8.574-9.727-16.151-18.471-22.094-27.048-28.164-40.665-31.066-85.541-31.305-90.524-.012-.269-.02-.538-.02-.807-.027-15.957 4.161-29.604 12.761-41.462-4.938-34.036-4.953-79.295.157-111.478 3.362-50.045 40.601-86.69 48.996-94.348-.903-6.697-.721-13.356.549-19.901 3.222-16.925 16.356-45.809 67.969-48.4 2.847-.152 5.324-.296 7.574-.428l2.518-.147c9.661-.552 17.949 6.828 18.507 16.492.557 9.665-6.828 17.949-16.492 18.507l-2.478.143c-2.307.135-4.85.284-7.82.442-31.846 1.599-34.393 14.975-35.351 20.01-.9 4.639-.569 9.111 1.032 14.135 1.999 6.27.316 13.131-4.356 17.766-2.582 2.561-5.447 5.052-7.412 6.728-2.201 1.94-35.975 32.335-38.298 71.976-.036.601-.1 1.198-.198 1.792-5.033 30.904-4.64 77.6.916 108.621.972 5.426-.666 10.994-4.421 15.03-4.2 4.514-9.011 11.317-9.095 24.04.26 4.312 3.049 40.039 25.085 71.856 4.862 7.02 11.738 14.94 19.566 23.82 23.354 26.497 52.408 59.462 57.347 115.309 1.388 15.988 1.262 24.555.912 28.928-.379 4.744-2.671 9.13-6.349 12.149-16.122 13.239-67.739 26.243-108.269 31.799-57.58 10.066-102.184 33.307-129.011 67.222-21.788 27.548-27.93 56.848-26.412 75.083.04.485.06.97.06 1.455v17.443h17.504c9.681 0 17.528 7.848 17.528 17.528s-7.851 17.527-17.531 17.527z"/><path d="m736.156 947.355c-3.3 0-6.636-.93-9.601-2.875-31.123-20.425-82.101-22.448-85.397-22.558h-19.533l-31.197.238c-.044 0-.089 0-.133 0h-409.779c-9.681 0-17.528-7.848-17.528-17.528v-19.858c-.285-5.736-.751-36.3 18.718-69.794 12.214-21.012 29.762-39.052 52.158-53.614 27.091-17.617 61.386-30.122 101.932-37.17.218-.037.438-.071.657-.1.299-.04 30.619-4.191 61.752-12.308 54.172-14.126 59.972-26.832 60.015-26.957.328-1.287.797-2.52 1.396-3.68.441-2.494 1.468-11.496-.609-35.022-5.367-60.843-37.113-96.855-62.619-125.793-8.096-9.184-15.743-17.859-21.65-26.392-25.496-36.83-27.864-78.721-27.953-80.485-.014-.292-.023-.584-.023-.876 0-17.051 8.825-25.189 15.916-31.728l.382-.354c.061-.056.116-.109.163-.156-.031-1.267-.534-3.864-.881-5.655-.151-.775-.301-1.554-.445-2.337-6.366-34.561-6.803-87.937-1.052-122.23 2.183-45.335 41.218-79.993 42.894-81.459.067-.057.132-.115.2-.172 5.506-4.673 11.085-9.77 14.6-15.377.29-.462.518-.847.694-1.164-.242-.594-.539-1.28-.787-1.852-2.07-4.774-5.535-12.761-3.624-22.718 1.162-6.056 5.572-16.873 22.048-21.269 6.523-1.74 13.449-2.094 18.507-2.353l.999-.052c19.843-1.044 41.009-1.928 62.44-.284 154.979 11.882 208.485 69.93 210.686 72.396.13.146.258.293.382.443 12.47 14.936 21.704 33.535 27.446 55.28 1.788 6.764 2.939 12.458 3.613 17.865 5.42 31.494 4.513 63.787 3.355 85.375-.647 12.113-1.999 24.844-4.253 40.054-.165 1.109-.485 3.755.097 4.449.653.78 1.464 1.643 2.325 2.555 3.482 3.696 8.251 8.756 10.807 16.936 1.281 4.11 1.876 8.494 1.876 13.807 0 .292-.007.584-.022.876-.088 1.765-2.457 43.658-27.953 80.486-5.906 8.531-13.552 17.205-21.647 26.388-25.509 28.937-57.256 64.951-62.624 125.795-2.083 23.6-1.042 32.586-.603 35.045.604 1.171 1.076 2.413 1.405 3.704.03.078 5.852 12.829 60.285 26.983 31.129 8.095 61.17 12.195 61.469 12.235.285.038.569.083.852.136 40.911 7.587 75.412 20.411 102.548 38.118 22.472 14.662 39.987 32.667 52.061 53.515 19.101 32.981 18.388 62.881 18.001 69.035v19.733c0 9.681-7.848 17.528-17.528 17.528h-111.476c-.986 0-1.952-.082-2.894-.238h-25.631c-9.681 0-17.528-7.848-17.528-17.528s7.848-17.528 17.528-17.528h46.087c.986 0 1.952.082 2.894.238h73.49v-2.825c0-.649.007-1.031.077-1.657.096-1.435 1.358-24.893-14.39-50.933-9.505-15.719-23.357-29.457-41.168-40.835-22.969-14.671-52.597-25.465-88.067-32.081-4.215-.584-34.619-4.946-66.517-13.344-49.149-12.939-75.713-28.447-83.045-48.589-3.635-7.06-5.671-20.947-2.773-53.794 6.381-72.31 43.872-114.84 71.248-145.895 7.718-8.755 14.383-16.316 19.123-23.161 18.463-26.669 21.447-58.208 21.738-61.923-.03-1.894-.219-2.652-.282-2.85-.142-.459-1.84-2.259-2.854-3.336-1.118-1.187-2.385-2.532-3.705-4.11-7.225-8.642-9.802-19.136-7.879-32.083 2.091-14.094 3.338-25.783 3.923-36.78 1.073-19.991 1.931-49.816-2.963-77.939-.053-.307-.099-.617-.136-.925-.464-3.889-1.34-8.194-2.755-13.547-4.371-16.55-11.145-30.466-20.137-41.375-1.558-1.583-13.617-13.326-40.431-26.096-26.711-12.722-73.851-29.061-146.735-34.648-19.344-1.485-39.219-.647-57.918.338l-1.053.053c-1.271.066-3.27.167-5.313.339 2.093 5.266 4.232 12.766 1.558 21.663-1.407 4.684-3.623 8.499-5.168 10.964-6.022 9.605-14.217 17.194-21.468 23.355-1.388 1.252-29.96 27.459-30.941 57.445-.027.816-.111 1.628-.25 2.432-5.266 30.258-4.911 80.067.792 111.035.124.672.254 1.342.382 2.008 1.674 8.627 4.79 24.683-9.924 38.255l-.389.359c-1.758 1.62-3.925 3.62-4.528 4.483-.027.153-.071.47-.088 1.005.305 3.919 3.274 35.21 21.735 61.877 4.738 6.845 11.405 14.408 19.124 23.165 27.374 31.054 64.864 73.585 71.243 145.891 2.9 32.846.865 46.733-2.769 53.794-7.331 20.142-33.894 35.649-83.045 48.589-32.175 8.471-62.829 12.835-66.621 13.359-35.71 6.24-65.49 16.994-88.516 31.967-17.751 11.542-31.532 25.62-40.961 41.842-15.447 26.575-14.045 50.044-14.027 50.273.038.469.056.939.056 1.41v2.825l423.392-.238h.133 19.838c.132 0 .262.001.396.004 2.574.059 63.493 1.729 103.986 28.301 8.094 5.311 10.348 16.178 5.037 24.272-3.368 5.128-8.964 7.913-14.671 7.913zm-78.438-271.801c.472.382.924.786 1.353 1.211-.404-.403-.854-.81-1.353-1.211z"/></svg>